<control>


default_path=Woodwinds\Flute\stac\


<global>




ampeg_attack=0.001


ampeg_release=3


ampeg_dynamic=1




volume=0




<group> //Begin Group 1




lorand=0.0 hirand=0.5


group_label=gr_1






<region>
sample=LDFlute_stac_A3_v1_rr1.wav
lokey=65
hikey=70
pitch_keycenter=69
lovel=0
hivel=41
volume=17


<region>
sample=LDFlute_stac_A4_v1_rr1.wav
lokey=79
hikey=82
pitch_keycenter=81
lovel=0
hivel=41
volume=17


<region>
sample=LDFlute_stac_A5_v1_rr1.wav
lokey=91
hikey=94
pitch_keycenter=93
lovel=0
hivel=41
volume=17


<region>
sample=LDFlute_stac_C4_v1_rr1.wav
lokey=71
hikey=73
pitch_keycenter=72
lovel=0
hivel=30
volume=18


<region>
sample=LDFlute_stac_C5_v1_rr1.wav
lokey=83
hikey=85
pitch_keycenter=84
lovel=0
hivel=41
volume=17


<region>
sample=LDFlute_stac_C6_v1_rr1.wav
lokey=95
hikey=96
pitch_keycenter=96
lovel=0
hivel=62
volume=15


<region>
sample=LDFlute_stac_E4_v1_rr1.wav
lokey=74
hikey=78
pitch_keycenter=76
lovel=0
hivel=41
volume=17


<region>
sample=LDFlute_stac_E5_v1_rr1.wav
lokey=86
hikey=90
pitch_keycenter=88
lovel=0
hivel=41
volume=17


<region>
sample=LDFlute_stac_A3_v2_rr1.wav
lokey=65
hikey=70
pitch_keycenter=69
lovel=42
hivel=83
volume=10


<region>
sample=LDFlute_stac_A4_v2_rr1.wav
lokey=79
hikey=82
pitch_keycenter=81
lovel=42
hivel=83
volume=10


<region>
sample=LDFlute_stac_A5_v2_rr1.wav
lokey=91
hikey=94
pitch_keycenter=93
lovel=42
hivel=83
volume=10


<region>
sample=LDFlute_stac_C4_v2_rr1.wav
lokey=71
hikey=73
pitch_keycenter=72
lovel=31
hivel=62
volume=13


<region>
sample=LDFlute_stac_C5_v2_rr1.wav
lokey=83
hikey=85
pitch_keycenter=84
lovel=42
hivel=83
volume=10


<region>
sample=LDFlute_stac_C6_v2_rr1.wav
lokey=95
hikey=96
pitch_keycenter=96
lovel=63
hivel=127
volume=5


<region>
sample=LDFlute_stac_E4_v2_rr1.wav
lokey=74
hikey=78
pitch_keycenter=76
lovel=42
hivel=83
volume=10


<region>
sample=LDFlute_stac_E5_v2_rr1.wav
lokey=86
hikey=90
pitch_keycenter=88
lovel=42
hivel=83
volume=10


<region>
sample=LDFlute_stac_A3_v3_rr1.wav
lokey=65
hikey=70
pitch_keycenter=69
lovel=84
hivel=127
volume=3


<region>
sample=LDFlute_stac_A4_v3_rr1.wav
lokey=79
hikey=82
pitch_keycenter=81
lovel=84
hivel=127
volume=3


<region>
sample=LDFlute_stac_A5_v3_rr1.wav
lokey=91
hikey=94
pitch_keycenter=93
lovel=84
hivel=127
volume=3


<region>
sample=LDFlute_stac_C4_v3_rr1.wav
lokey=71
hikey=73
pitch_keycenter=72
lovel=63
hivel=94
volume=8


<region>
sample=LDFlute_stac_C5_v3_rr1.wav
lokey=83
hikey=85
pitch_keycenter=84
lovel=84
hivel=127
volume=3


<region>
sample=LDFlute_stac_E4_v3_rr1.wav
lokey=74
hikey=78
pitch_keycenter=76
lovel=84
hivel=127
volume=3


<region>
sample=LDFlute_stac_E5_v3_rr1.wav
lokey=86
hikey=90
pitch_keycenter=88
lovel=84
hivel=127
volume=3


<region>
sample=LDFlute_stac_C4_v4_rr1.wav
lokey=71
hikey=73
pitch_keycenter=72
lovel=95
hivel=127
volume=3


<group> //Begin Group 2




lorand=0.5 hirand=1.0


group_label=gr_2






<region>
sample=LDFlute_stac_A3_v1_rr2.wav
lokey=65
hikey=70
pitch_keycenter=69
lovel=0
hivel=41
volume=17


<region>
sample=LDFlute_stac_A4_v1_rr2.wav
lokey=79
hikey=82
pitch_keycenter=81
lovel=0
hivel=41
volume=17


<region>
sample=LDFlute_stac_A5_v1_rr2.wav
lokey=91
hikey=94
pitch_keycenter=93
lovel=0
hivel=41
volume=17


<region>
sample=LDFlute_stac_C4_v1_rr2.wav
lokey=71
hikey=73
pitch_keycenter=72
lovel=0
hivel=30
volume=18


<region>
sample=LDFlute_stac_C5_v1_rr2.wav
lokey=83
hikey=85
pitch_keycenter=84
lovel=0
hivel=41
volume=17


<region>
sample=LDFlute_stac_C6_v1_rr2.wav
lokey=95
hikey=96
pitch_keycenter=96
lovel=0
hivel=62
volume=15


<region>
sample=LDFlute_stac_E4_v1_rr2.wav
lokey=74
hikey=78
pitch_keycenter=76
lovel=0
hivel=41
volume=17


<region>
sample=LDFlute_stac_E5_v1_rr2.wav
lokey=86
hikey=90
pitch_keycenter=88
lovel=0
hivel=41
volume=17


<region>
sample=LDFlute_stac_A3_v2_rr2.wav
lokey=65
hikey=70
pitch_keycenter=69
lovel=42
hivel=83
volume=10


<region>
sample=LDFlute_stac_A4_v2_rr2.wav
lokey=79
hikey=82
pitch_keycenter=81
lovel=42
hivel=83
volume=10


<region>
sample=LDFlute_stac_A5_v2_rr2.wav
lokey=91
hikey=94
pitch_keycenter=93
lovel=42
hivel=83
volume=10


<region>
sample=LDFlute_stac_C4_v2_rr2.wav
lokey=71
hikey=73
pitch_keycenter=72
lovel=31
hivel=62
volume=13


<region>
sample=LDFlute_stac_C5_v2_rr2.wav
lokey=83
hikey=85
pitch_keycenter=84
lovel=42
hivel=83
volume=10


<region>
sample=LDFlute_stac_C6_v2_rr2.wav
lokey=95
hikey=96
pitch_keycenter=96
lovel=63
hivel=127
volume=5


<region>
sample=LDFlute_stac_E4_v2_rr2.wav
lokey=74
hikey=78
pitch_keycenter=76
lovel=42
hivel=83
volume=10


<region>
sample=LDFlute_stac_E5_v2_rr2.wav
lokey=86
hikey=90
pitch_keycenter=88
lovel=42
hivel=83
volume=10


<region>
sample=LDFlute_stac_A3_v3_rr2.wav
lokey=65
hikey=70
pitch_keycenter=69
lovel=84
hivel=127
volume=3


<region>
sample=LDFlute_stac_A4_v3_rr2.wav
lokey=79
hikey=82
pitch_keycenter=81
lovel=84
hivel=127
volume=3


<region>
sample=LDFlute_stac_A5_v3_rr2.wav
lokey=91
hikey=94
pitch_keycenter=93
lovel=84
hivel=127
volume=3


<region>
sample=LDFlute_stac_C4_v3_rr2.wav
lokey=71
hikey=73
pitch_keycenter=72
lovel=63
hivel=94
volume=8


<region>
sample=LDFlute_stac_C5_v3_rr2.wav
lokey=83
hikey=85
pitch_keycenter=84
lovel=84
hivel=127
volume=3


<region>
sample=LDFlute_stac_E4_v3_rr2.wav
lokey=74
hikey=78
pitch_keycenter=76
lovel=84
hivel=127
volume=3


<region>
sample=LDFlute_stac_E5_v3_rr2.wav
lokey=86
hikey=90
pitch_keycenter=88
lovel=84
hivel=127
volume=3


<region>
sample=LDFlute_stac_C4_v4_rr2.wav
lokey=71
hikey=73
pitch_keycenter=72
lovel=95
hivel=127
volume=3


